<?xml version="1.0" encoding="UTF-8" standalone="no"?>
<!-- Created with Inkscape (http://www.inkscape.org/) -->

<svg
   width="128"
   height="128"
   viewBox="0 0 128 128"
   version="1.1"
   id="svg1"
   xml:space="preserve"
   inkscape:version="1.4 (86a8ad7, 2024-10-11)"
   sodipodi:docname="logo.svg"
   xmlns:inkscape="http://www.inkscape.org/namespaces/inkscape"
   xmlns:sodipodi="http://sodipodi.sourceforge.net/DTD/sodipodi-0.dtd"
   xmlns="http://www.w3.org/2000/svg"
   xmlns:svg="http://www.w3.org/2000/svg"
   xmlns:rdf="http://www.w3.org/1999/02/22-rdf-syntax-ns#"
   xmlns:cc="http://creativecommons.org/ns#"
   xmlns:dc="http://purl.org/dc/elements/1.1/"><title
     id="title1">PixelCRUD-Logo</title><sodipodi:namedview
     id="namedview1"
     pagecolor="#505050"
     bordercolor="#ffffff"
     borderopacity="1"
     inkscape:showpageshadow="0"
     inkscape:pageopacity="0"
     inkscape:pagecheckerboard="1"
     inkscape:deskcolor="#505050"
     inkscape:document-units="px"
     inkscape:zoom="3.4766083"
     inkscape:cx="23.154751"
     inkscape:cy="78.956262"
     inkscape:window-width="1920"
     inkscape:window-height="1129"
     inkscape:window-x="-8"
     inkscape:window-y="-8"
     inkscape:window-maximized="1"
     inkscape:current-layer="layer1" /><defs
     id="defs1"><rect
       x="16.107653"
       y="13.518923"
       width="97.508827"
       height="101.53574"
       id="rect1" /></defs><g
     inkscape:label="Layer 1"
     inkscape:groupmode="layer"
     id="layer1"><g
       id="g2"><g
         id="g1"
         transform="matrix(0.9960083,0,0,1.1217277,-0.90935087,-7.5259145)"><g
           inkscape:label="Warstwa 1"
           id="layer1-8"
           transform="matrix(22.840826,0,0,20.232201,-2220.6189,-1840.7742)"><rect
             style="fill:#0b61bc;fill-opacity:1;stroke:#0b61bc;stroke-width:1;stroke-linecap:round;stroke-linejoin:round;stroke-dasharray:none;stroke-dashoffset:0;stroke-opacity:1"
             id="rect3"
             width="4.6264596"
             height="4.6264596"
             x="97.761452"
             y="91.814011" /><rect
             style="fill:#007bff;fill-opacity:1;stroke:#007bff;stroke-width:1;stroke-linecap:round;stroke-linejoin:round;stroke-dasharray:none;stroke-dashoffset:0;stroke-opacity:1"
             id="rect4"
             width="3.2116606"
             height="3.2116606"
             x="2.5996454"
             y="135.71567"
             transform="rotate(-45)" /><rect
             style="fill:#5ea0e8;fill-opacity:1;stroke:#5ea0e8;stroke-width:0.999999;stroke-linecap:round;stroke-linejoin:round;stroke-dasharray:none;stroke-dashoffset:0;stroke-opacity:1"
             id="rect5"
             width="3.4358346"
             height="3.4358346"
             x="98.356766"
             y="92.409325" /><path
             style="font-size:5.08403px;font-family:Calibri;-inkscape-font-specification:Calibri;direction:rtl;text-orientation:upright;fill:#f2efe7;stroke:#b1ffff;stroke-width:0;stroke-linecap:round"
             d="m 83.091594,115.83442 q 0.01986,0.0546 0.01986,0.0894 0.0025,0.0323 -0.01738,0.0496 -0.01986,0.0174 -0.06703,0.0223 -0.04468,0.005 -0.121639,0.005 -0.07696,0 -0.124122,-0.005 -0.04468,-0.002 -0.06951,-0.01 -0.02234,-0.01 -0.03475,-0.0248 -0.0099,-0.0149 -0.01986,-0.0372 l -0.27555,-0.78197 h -1.335551 l -0.263138,0.77204 q -0.0074,0.0223 -0.01986,0.0397 -0.01241,0.0149 -0.03724,0.0273 -0.02234,0.01 -0.06703,0.0149 -0.0422,0.005 -0.11171,0.005 -0.07199,0 -0.119157,-0.007 -0.04468,-0.005 -0.06454,-0.0223 -0.01738,-0.0174 -0.01738,-0.0496 0.0025,-0.0348 0.02234,-0.0894 l 1.077377,-2.98389 q 0.0099,-0.0273 0.02482,-0.0447 0.01738,-0.0174 0.04717,-0.0273 0.03227,-0.01 0.07944,-0.0124 0.04965,-0.005 0.124122,-0.005 0.07944,0 0.131569,0.005 0.05213,0.002 0.0844,0.0124 0.03227,0.01 0.04965,0.0298 0.01738,0.0174 0.02731,0.0447 z m -1.382717,-2.63387 h -0.0025 l -0.553583,1.60118 h 1.117096 z"
             id="text5"
             transform="scale(1.2248209,0.8164459)"
             aria-label="A" /><path
             style="font-size:1.31107px;font-family:Arial;-inkscape-font-specification:Arial;direction:rtl;text-orientation:upright;fill:#f2efe7;stroke:#000000;stroke-width:0;stroke-miterlimit:100;paint-order:stroke fill markers"
             d="m 98.920076,95.557656 0.124194,0.03137 q -0.03905,0.153001 -0.140838,0.233662 -0.101147,0.08002 -0.247746,0.08002 -0.151721,0 -0.247106,-0.06146 -0.09475,-0.0621 -0.144679,-0.179247 -0.04929,-0.117152 -0.04929,-0.251588 0,-0.146599 0.0557,-0.255428 0.05634,-0.109469 0.159402,-0.165804 0.103708,-0.05697 0.227901,-0.05697 0.140838,0 0.236864,0.0717 0.09602,0.0717 0.133795,0.201654 l -0.122272,0.02881 q -0.03265,-0.102427 -0.09475,-0.149159 -0.0621,-0.04673 -0.156201,-0.04673 -0.108189,0 -0.181169,0.05185 -0.07234,0.05185 -0.101787,0.139557 -0.02945,0.08706 -0.02945,0.179888 0,0.119712 0.03457,0.209336 0.03521,0.08898 0.10883,0.133156 0.07362,0.04417 0.159402,0.04417 0.104348,0 0.176687,-0.06018 0.07234,-0.06018 0.09795,-0.178607 z m 0.279115,0.329047 v -0.93849 h 0.416111 q 0.125473,0 0.190771,0.02561 0.0653,0.02497 0.104348,0.08898 0.03905,0.06402 0.03905,0.141477 0,0.09987 -0.06466,0.168365 -0.06466,0.0685 -0.199733,0.08706 0.04929,0.02369 0.0749,0.04673 0.05441,0.04993 0.103067,0.124833 l 0.163242,0.255428 h -0.1562 l -0.124193,-0.195252 q -0.05442,-0.0845 -0.08962,-0.129314 -0.03521,-0.04481 -0.06338,-0.06274 -0.02753,-0.01792 -0.05633,-0.02497 -0.02113,-0.0045 -0.06914,-0.0045 h -0.144039 v 0.416751 z m 0.124193,-0.524299 h 0.266951 q 0.08514,0 0.133156,-0.01729 0.04801,-0.01792 0.07298,-0.05633 0.02497,-0.03905 0.02497,-0.0845 0,-0.06658 -0.04865,-0.109469 -0.04801,-0.04289 -0.152361,-0.04289 h -0.297039 z m 1.436546,-0.414191 h 0.12419 v 0.542225 q 0,0.141477 -0.032,0.2247 -0.032,0.08322 -0.11587,0.135716 -0.0832,0.05185 -0.21894,0.05185 -0.13187,0 -0.21573,-0.04545 -0.0839,-0.04545 -0.11972,-0.131235 -0.0358,-0.08642 -0.0358,-0.235583 v -0.542225 h 0.1242 v 0.541585 q 0,0.122272 0.0224,0.180528 0.0231,0.05761 0.0781,0.08898 0.0557,0.03137 0.13572,0.03137 0.137,0 0.19525,-0.0621 0.0583,-0.0621 0.0583,-0.238783 z m 0.33097,0.93849 v -0.93849 h 0.32328 q 0.10947,0 0.16709,0.01344 0.0807,0.01856 0.13763,0.06722 0.0743,0.06274 0.11075,0.160682 0.0371,0.09731 0.0371,0.22278 0,0.106908 -0.025,0.18949 -0.025,0.08258 -0.064,0.136997 -0.0391,0.05377 -0.0858,0.08514 -0.0461,0.03073 -0.11203,0.04673 -0.0653,0.016 -0.15044,0.016 z m 0.12419,-0.110749 h 0.20037 q 0.0928,0 0.14532,-0.01729 0.0531,-0.01728 0.0845,-0.04865 0.0442,-0.04417 0.0685,-0.118431 0.025,-0.0749 0.025,-0.181169 0,-0.147239 -0.0486,-0.22598 -0.048,-0.07938 -0.11716,-0.106268 -0.0499,-0.0192 -0.16068,-0.0192 h -0.19717 z"
             id="text6"
             aria-label="CRUD" /></g></g></g><text
       xml:space="preserve"
       id="text1"
       style="fill:#000000;text-orientation:auto;text-align:start;writing-mode:lr-tb;direction:ltr;white-space:pre;shape-inside:url(#rect1)" /></g><metadata
     id="metadata1"><rdf:RDF><cc:Work
         rdf:about=""><dc:title>PixelCRUD-Logo</dc:title></cc:Work></rdf:RDF></metadata></svg>
